<?xml version="1.0" standalone="no"?>
<!DOCTYPE svg PUBLIC "-//W3C//DTD SVG 20010904//EN"
 "http://www.w3.org/TR/2001/REC-SVG-20010904/DTD/svg10.dtd">
<svg version="1.0" xmlns="http://www.w3.org/2000/svg"
 width="1563.000000pt" height="1563.000000pt" viewBox="0 0 1563.000000 1563.000000"
 preserveAspectRatio="xMidYMid meet">
<metadata>
Created by potrace 1.16, written by Peter Selinger 2001-2019
</metadata>
<g transform="translate(0.000000,1563.000000) scale(0.100000,-0.100000)"
fill="#000000" stroke="none">
<path d="M7570 10064 c-19 -2 -78 -9 -130 -14 -651 -71 -1257 -453 -1629
-1025 -64 -99 -170 -311 -211 -425 -44 -120 -96 -325 -117 -460 -26 -173 -24
-493 6 -664 26 -154 51 -259 93 -381 62 -180 174 -403 282 -558 l48 -67 551 0
552 0 -102 61 c-273 166 -505 444 -622 749 -76 195 -111 450 -93 663 34 375
177 683 442 947 224 225 478 360 792 421 159 32 397 32 555 1 483 -95 889
-407 1094 -843 l42 -89 33 113 c60 209 177 467 289 635 l43 66 -58 70 c-68 84
-226 238 -325 317 -303 243 -688 408 -1082 463 -112 16 -387 28 -453 20z"/>
<path d="M11340 10064 c-607 -45 -1137 -305 -1541 -755 -112 -125 -172 -206
-163 -220 4 -7 3 -10 -4 -5 -24 15 -193 -296 -260 -479 -92 -249 -129 -448
-142 -762 -10 -245 -33 -377 -93 -543 -33 -91 -98 -225 -135 -277 -12 -17 -22
-34 -22 -37 0 -19 -136 -179 -224 -263 -120 -116 -218 -183 -381 -263 -188
-92 -325 -130 -537 -150 -77 -7 -724 -10 -2012 -8 l-1899 3 477 463 c548 533
606 600 726 842 386 773 128 1710 -601 2183 -202 131 -429 216 -672 253 -152
22 -448 15 -589 -15 -796 -171 -1356 -857 -1358 -1663 0 -412 157 -831 419
-1118 l59 -65 93 90 c52 49 168 162 259 251 l166 161 -34 39 c-56 65 -124 174
-157 253 -127 302 -102 631 71 908 55 89 185 224 269 280 262 176 579 219 870
120 337 -115 589 -413 645 -761 20 -119 8 -321 -24 -429 -49 -163 -138 -311
-260 -432 -34 -33 -219 -213 -411 -399 -193 -187 -424 -412 -515 -500 -228
-222 -485 -472 -675 -656 -335 -324 -545 -531 -545 -537 0 -11 5739 7 5835 18
226 26 471 97 691 199 100 46 294 160 294 172 0 4 5 8 12 8 13 0 150 104 218
165 112 101 304 305 287 305 -2 0 10 16 29 37 18 20 31 40 28 45 -3 4 0 8 6 8
28 0 194 302 264 482 89 226 130 423 146 694 5 99 12 213 15 254 11 166 61
351 140 516 25 52 42 100 39 106 -4 6 -3 8 4 5 6 -4 24 16 42 45 82 134 248
312 381 410 37 28 217 138 224 138 2 0 28 11 57 25 200 92 484 145 708 130
699 -45 1259 -533 1407 -1225 26 -122 26 -459 -1 -580 -104 -481 -395 -858
-825 -1071 -354 -175 -785 -202 -1160 -73 -172 59 -378 177 -496 285 -33 30
-73 65 -89 77 -16 12 -25 22 -21 22 4 0 -19 28 -51 63 -91 98 -225 316 -256
416 -2 7 -14 -25 -27 -70 -62 -219 -177 -478 -287 -647 l-55 -84 25 -31 c35
-45 69 -83 140 -157 392 -405 925 -650 1476 -679 574 -30 1102 137 1535 484
444 357 715 817 821 1400 26 140 26 563 1 710 -85 483 -294 891 -632 1230
-121 121 -287 253 -425 337 -250 153 -568 265 -853 302 -120 16 -357 26 -447
20z m-7995 -3959 l0 -30 -107 -3 -108 -3 0 -54 0 -55 95 0 95 0 0 -35 0 -35
-95 0 -95 0 0 -75 0 -75 -35 0 -35 0 0 200 0 201 143 -3 142 -3 0 -30z m325
12 c81 -39 99 -150 35 -214 -19 -19 -35 -37 -35 -40 0 -3 15 -26 33 -52 53
-74 53 -71 8 -71 -37 0 -42 4 -78 55 -38 55 -38 55 -90 55 l-53 0 0 -55 0 -55
-40 0 -40 0 0 201 0 201 113 -4 c79 -3 122 -9 147 -21z m230 -177 l0 -200 -40
0 -40 0 0 193 c0 107 3 197 7 200 3 4 21 7 40 7 l33 0 0 -200z m385 5 c47
-104 85 -193 85 -197 0 -4 -17 -8 -37 -8 -36 0 -39 3 -56 45 l-19 45 -98 0
-98 0 -18 -45 c-16 -43 -19 -45 -56 -45 -31 0 -39 3 -35 14 3 8 43 98 89 201
l83 186 37 -3 38 -3 85 -190z m357 185 c46 -13 51 -21 36 -55 -8 -18 -16 -24
-27 -19 -68 29 -135 28 -165 -2 -34 -33 -8 -59 82 -84 94 -26 119 -43 133 -90
14 -47 -2 -85 -50 -117 -45 -30 -155 -32 -218 -3 -24 10 -43 22 -43 25 0 5 19
45 25 53 1 1 17 -5 35 -15 78 -38 180 -23 180 27 0 23 -33 40 -124 65 -72 20
-106 51 -106 99 0 19 6 47 12 62 25 53 137 79 230 54z m398 -190 l0 -200 -37
0 -38 0 0 162 0 163 -42 3 c-42 3 -43 4 -43 38 l0 34 80 0 80 0 0 -200z m313
189 c48 -25 67 -51 67 -94 0 -22 -7 -51 -16 -63 -15 -22 -15 -25 5 -46 30 -32
36 -77 16 -119 -22 -47 -70 -69 -150 -69 -90 1 -144 33 -159 94 -8 33 14 92
39 106 16 9 16 11 -4 31 -26 26 -28 86 -5 120 9 13 31 29 48 37 38 16 129 18
159 3z m366 -24 c16 -17 30 -41 31 -55 6 -71 1 -81 -77 -161 l-76 -79 86 0 87
0 0 -35 0 -35 -145 0 -145 0 0 29 c0 24 16 44 83 108 46 43 92 90 102 105 43
67 -27 116 -112 78 -41 -18 -46 -18 -69 -3 -24 15 -24 16 -7 36 31 34 74 47
146 44 59 -2 71 -6 96 -32z m356 0 l0 -30 -85 -5 -85 -5 -3 -34 c-4 -40 8 -51
61 -51 61 0 106 -24 123 -67 28 -65 5 -126 -58 -159 -51 -26 -196 -13 -230 21
-4 4 0 21 8 36 15 29 15 29 47 12 46 -24 134 -24 153 1 18 25 18 47 0 72 -12
16 -29 20 -101 23 l-87 3 6 54 c3 30 9 79 12 109 l6 56 117 -3 116 -3 0 -30z
m810 20 c49 -24 71 -77 55 -136 -8 -27 -31 -58 -80 -106 -39 -37 -70 -70 -70
-73 0 -3 38 -4 85 -2 l85 3 0 -35 0 -36 -145 0 -145 0 0 29 c0 24 16 44 89
111 100 92 121 127 101 166 -18 33 -80 37 -131 7 -24 -14 -28 -14 -53 2 -26
17 -26 18 -9 37 42 46 154 63 218 33z m373 -11 c47 -35 67 -89 67 -179 0 -92
-19 -135 -75 -172 -42 -29 -128 -31 -171 -6 -74 44 -104 200 -56 293 33 67 78
93 150 88 36 -3 67 -12 85 -24z m332 7 c23 -12 40 -31 49 -55 22 -58 4 -101
-81 -185 l-72 -71 87 0 87 0 0 -35 0 -35 -145 0 -145 0 0 28 c0 21 19 46 94
117 103 97 121 132 91 165 -23 25 -106 28 -125 5 -16 -19 -25 -19 -56 1 -24
16 -24 17 -7 37 43 48 158 63 223 28z m380 -16 l0 -35 -84 0 -84 0 -7 -36 c-3
-20 -4 -39 0 -42 3 -3 25 -7 49 -9 73 -7 100 -18 124 -53 40 -60 18 -150 -44
-176 -60 -25 -189 -14 -231 19 -10 7 -9 15 4 37 16 27 18 28 44 15 49 -26 104
-29 138 -9 34 20 40 48 17 79 -11 15 -30 19 -100 23 l-86 5 4 31 c3 17 8 66
11 109 l7 77 119 0 119 0 0 -35z"/>
<path d="M3490 5995 l0 -75 65 0 c57 0 69 3 90 25 14 13 25 36 25 50 0 14 -11
37 -25 50 -21 22 -33 25 -90 25 l-65 0 0 -75z"/>
<path d="M5218 5900 c-53 -42 -21 -100 55 -100 109 0 119 102 10 117 -29 4
-44 0 -65 -17z"/>
<path d="M7140 6068 c-40 -13 -60 -57 -60 -130 0 -105 51 -159 119 -124 39 21
54 63 49 141 -6 90 -47 134 -108 113z"/>
<path d="M7535 9159 c-163 -21 -375 -95 -514 -179 -464 -282 -715 -794 -650
-1325 70 -572 497 -1033 1072 -1157 146 -31 388 -31 537 2 675 146 1134 758
1073 1432 -31 343 -168 628 -416 864 -214 205 -482 331 -772 364 -105 12 -231
11 -330 -1z m925 -634 c27 -13 51 -29 54 -34 4 -5 38 -20 76 -32 66 -21 74
-26 167 -127 104 -112 101 -120 -10 -25 -38 32 -79 66 -91 76 -12 10 -49 25
-81 33 -33 9 -76 26 -95 38 -60 38 -67 38 -121 1 -27 -18 -60 -37 -72 -41 -12
-4 -44 -25 -70 -47 -45 -38 -50 -39 -83 -29 -30 9 -43 7 -100 -19 -76 -35
-144 -40 -190 -16 -28 14 -49 15 -168 7 -112 -8 -152 -7 -228 6 -96 17 -132
15 -185 -7 -28 -11 -38 -11 -65 1 -36 15 -96 18 -143 6 -27 -6 -35 -2 -75 38
-25 25 -53 45 -63 46 -9 0 -54 -38 -100 -84 -77 -78 -87 -85 -142 -96 -44 -9
-68 -21 -92 -45 -18 -18 -33 -29 -33 -24 0 21 55 59 119 84 67 25 101 52 137
109 23 37 91 86 117 86 12 0 43 -18 69 -41 l49 -41 40 16 c23 9 51 14 63 11
11 -3 37 -11 58 -17 32 -9 40 -8 68 12 30 21 37 22 113 14 45 -5 168 -9 273
-9 142 0 195 -3 206 -13 31 -25 81 -25 160 2 73 24 79 25 105 9 28 -16 29 -15
70 25 22 22 58 49 79 60 22 11 57 36 79 56 21 20 43 36 47 36 5 0 31 -11 58
-25z m94 -315 c19 -22 43 -57 51 -77 16 -38 23 -149 10 -161 -12 -12 -83 77
-99 125 -17 50 -22 153 -7 153 5 0 25 -18 45 -40z m-1484 -77 c87 -15 167
-111 156 -190 -5 -37 2 -56 71 -189 61 -120 73 -151 64 -163 -6 -9 -14 -24
-17 -33 -7 -21 -24 -24 -24 -5 0 17 -45 38 -65 31 -10 -4 -15 0 -16 12 0 12
-3 14 -6 6 -8 -21 18 -44 43 -38 27 7 44 -17 44 -63 0 -22 -6 -32 -22 -37 -32
-11 -79 -5 -105 12 -12 8 -35 13 -50 13 -26 -2 -26 -2 -4 -6 14 -3 36 -12 50
-21 18 -13 44 -16 98 -15 81 3 91 -6 41 -37 -43 -26 -76 -25 -148 5 -33 14
-92 30 -131 35 -39 6 -76 13 -83 17 -7 4 -8 2 -1 -5 6 -6 47 -18 93 -26 105
-20 142 -38 142 -72 0 -13 6 -35 14 -47 23 -37 30 -140 13 -189 -9 -24 -18
-54 -21 -68 -10 -49 -68 -110 -136 -143 -58 -29 -75 -32 -173 -35 l-108 -4
-47 49 c-102 107 -188 239 -250 383 -50 117 -54 136 -36 192 9 26 20 51 25 54
5 3 9 13 9 23 0 10 9 26 20 36 11 10 20 26 20 36 0 10 23 43 52 74 l52 56 52
-7 c58 -7 97 7 87 32 -5 12 -8 12 -20 -6 -19 -27 -47 -25 -118 9 -55 25 -145
106 -145 130 0 15 23 28 66 40 46 12 138 -1 151 -22 4 -7 0 -8 -13 -2 -10 4
-46 9 -79 11 l-60 3 62 -8 c34 -4 73 -15 87 -24 29 -20 76 -78 77 -98 1 -8 4
-3 8 11 10 32 -10 73 -49 102 -32 23 -39 55 -15 64 8 3 23 21 34 40 12 20 28
34 40 34 10 0 21 6 24 14 3 7 23 17 44 20 111 19 139 23 153 19 8 -3 31 -7 50
-10z m1691 -157 c1 -41 -4 -61 -29 -100 -17 -26 -34 -62 -37 -78 -10 -44 -26
-21 -32 48 -6 63 5 100 54 183 25 43 27 44 35 22 4 -13 9 -46 9 -75z m-1353 4
c5 -26 -55 -105 -98 -129 l-40 -22 -19 42 c-21 45 -19 59 5 59 10 0 12 -5 8
-12 -5 -7 7 -1 25 15 18 15 45 30 59 33 43 9 49 12 24 13 -12 1 -40 -8 -62
-19 -45 -23 -72 -26 -65 -7 7 16 93 46 130 44 18 -1 31 -8 33 -17z m1154 -68
c61 -32 76 -50 93 -106 13 -41 6 -63 -10 -36 -4 6 -37 26 -73 45 -63 32 -99
67 -118 119 -6 16 -3 17 27 11 19 -4 55 -19 81 -33z m238 -53 c0 -61 -4 -76
-28 -112 -16 -23 -34 -57 -42 -75 -9 -23 -15 -30 -20 -20 -17 31 -19 87 -6
131 15 51 72 147 87 147 5 0 9 -32 9 -71z m-224 -61 c55 -25 100 -74 113 -123
16 -58 14 -62 -16 -33 -16 14 -51 37 -79 51 -50 25 -82 63 -99 117 -6 20 -4
21 17 15 12 -4 41 -16 64 -27z m-482 -45 c37 -26 95 -108 84 -118 -7 -8 -82
16 -116 37 -33 20 -92 91 -92 111 0 19 83 -2 124 -30z m740 21 c3 -9 6 -37 6
-62 0 -38 -9 -60 -45 -116 -25 -38 -45 -73 -45 -78 0 -4 -4 -8 -9 -8 -5 0 -12
22 -16 48 -7 55 9 107 59 184 34 52 41 56 50 32z m-252 -93 c84 -36 138 -98
138 -161 l0 -31 -27 26 c-16 14 -47 35 -71 46 -29 15 -50 34 -65 63 -45 85
-45 87 25 57z m288 -84 c0 -65 -24 -164 -48 -196 -22 -30 -49 -48 -58 -38 -16
16 -20 107 -7 139 20 48 96 158 105 152 4 -3 8 -29 8 -57z m-187 -97 c42 -39
50 -51 54 -92 5 -44 4 -48 -16 -48 -39 0 -78 28 -110 80 -30 49 -61 115 -61
130 0 18 87 -27 133 -70z m-145 -22 c35 -72 47 -131 38 -183 -9 -44 -26 -45
-59 -1 -19 25 -28 51 -33 99 -7 69 2 161 15 153 4 -3 22 -34 39 -68z m-26
-200 c14 -18 31 -33 37 -33 14 0 131 -162 131 -181 0 -29 -17 -12 -74 76 -45
69 -63 89 -75 84 -61 -28 -134 -10 -205 50 l-30 25 30 6 c16 4 34 9 39 11 6 2
35 2 65 -1 47 -3 58 -9 82 -37z"/>
<path d="M11340 9164 c-14 -2 -59 -9 -100 -15 -90 -13 -249 -64 -346 -110
-273 -131 -517 -377 -644 -652 -236 -511 -127 -1120 270 -1517 273 -274 648
-418 1030 -396 626 37 1145 495 1255 1111 25 135 23 364 -4 492 -118 570 -560
992 -1131 1078 -86 13 -266 18 -330 9z m292 -408 c102 -20 174 -49 248 -100
209 -146 313 -416 297 -775 -3 -69 -13 -162 -22 -207 l-17 -81 26 -37 c44 -65
47 -175 6 -242 -18 -28 -19 -38 -9 -90 20 -107 -12 -248 -63 -275 -28 -15 -65
13 -90 68 -21 47 -28 182 -13 234 5 20 1 18 -22 -11 -88 -110 -177 -183 -278
-230 -27 -12 -87 -29 -133 -37 -199 -34 -404 50 -548 226 -32 39 -59 69 -61
67 -2 -1 2 -28 7 -58 18 -95 -13 -226 -60 -255 -70 -44 -137 113 -111 261 10
59 9 69 -8 102 -41 76 -36 181 11 247 20 28 20 30 4 110 -10 45 -20 141 -23
212 -20 479 176 798 537 870 88 18 232 18 322 1z"/>
<path d="M11280 8701 c-161 -43 -296 -154 -369 -302 -62 -126 -82 -217 -88
-396 -5 -137 -4 -153 11 -153 9 0 16 5 16 10 0 6 7 10 15 10 8 0 15 3 15 8 0
11 74 41 131 53 75 16 191 1 259 -33 31 -16 60 -40 60 -50 0 -9 -25 -42 -63
-79 -69 -71 -213 -100 -300 -60 -25 12 -49 21 -53 21 -3 0 -24 18 -46 41 -22
22 -42 39 -44 37 -2 -3 5 -52 15 -109 74 -406 336 -689 636 -689 249 0 488
208 593 517 26 73 67 272 59 280 -4 3 -23 -13 -43 -36 -21 -22 -41 -41 -46
-41 -5 0 -28 -9 -52 -19 -55 -26 -163 -23 -223 4 -24 11 -43 23 -43 27 0 5 -6
8 -13 8 -7 0 -23 14 -37 31 -14 17 -31 37 -37 44 -7 8 -13 17 -13 22 0 13 38
43 55 43 8 0 15 4 15 9 0 25 188 49 256 32 57 -15 124 -43 124 -53 0 -5 7 -8
15 -8 8 0 15 -4 15 -10 0 -5 6 -10 14 -10 21 0 26 63 16 190 -25 306 -140 515
-334 610 -44 22 -108 47 -141 55 -84 21 -290 19 -375 -4z m-173 -507 c43 -9
93 -24 113 -34 74 -38 120 -113 120 -195 l0 -45 -39 19 c-80 41 -179 61 -303
61 -141 0 -153 7 -146 82 4 36 13 57 34 80 50 53 93 59 221 32z m950 -26 c29
-29 37 -46 40 -85 8 -76 -4 -83 -141 -83 -122 0 -238 -23 -298 -60 -51 -31
-55 -27 -48 38 15 125 77 182 235 218 33 7 86 12 118 11 51 -3 62 -7 94 -39z
m-543 -181 c27 -28 46 -103 46 -186 0 -32 3 -80 7 -106 5 -40 11 -51 40 -67
61 -36 56 -95 -10 -130 -59 -31 -184 -31 -243 0 -63 33 -72 75 -24 115 16 14
34 27 40 29 6 2 14 60 20 140 9 140 24 198 57 217 27 16 42 13 67 -12z m246
-626 c0 -5 -17 -23 -37 -40 l-38 -31 -210 0 -210 0 -37 33 c-21 19 -38 37 -38
40 0 4 128 7 285 7 168 0 285 -4 285 -9z"/>
<path d="M10933 8145 c-22 -15 -50 -81 -39 -92 3 -3 61 -7 128 -8 96 -1 138
-7 191 -24 38 -12 72 -20 75 -16 11 11 -34 79 -66 101 -67 46 -245 70 -289 39z"/>
<path d="M11811 8140 c-35 -10 -75 -26 -89 -37 -27 -20 -68 -90 -59 -99 3 -3
36 5 74 17 52 17 96 23 191 25 68 1 126 4 129 7 10 11 -19 77 -40 92 -29 20
-126 18 -206 -5z"/>
<path d="M11457 7930 c-12 -30 -29 -187 -31 -300 -1 -34 0 -35 43 -38 24 -2
48 1 53 6 6 6 5 59 -2 138 -13 164 -17 186 -34 210 -14 18 -15 17 -29 -16z"/>
</g>
</svg>
